<?xml version="1.0" encoding="UTF-8"?>
<svg xmlns="http://www.w3.org/2000/svg" xmlns:xlink="http://www.w3.org/1999/xlink" width="192px" height="192px" viewBox="0 0 192 192" version="1.1">
<defs>
<linearGradient id="linear0" gradientUnits="userSpaceOnUse" x1="0" y1="0" x2="1" y2="0" gradientTransform="matrix(135.764502,135.764502,-135.764502,135.764502,96,-39.764502)">
<stop offset="0" style="stop-color:rgb(21.176471%,24.313725%,70.196078%);stop-opacity:1;"/>
<stop offset="1" style="stop-color:rgb(79.607843%,78.823529%,100%);stop-opacity:1;"/>
</linearGradient>
</defs>
<g id="surface1">
<rect x="0" y="0" width="192" height="192" style="fill:url(#linear0);stroke:none;"/>
<path style="fill-rule:nonzero;fill:rgb(12.941177%,11.764706%,13.725491%);fill-opacity:1;stroke-width:0.2;stroke-linecap:butt;stroke-linejoin:miter;stroke:rgb(100%,100%,100%);stroke-opacity:1;stroke-miterlimit:4;" d="M 8.409885 -3.780233 C 8.409885 -4.2802 8.233426 -4.670004 7.88001 -4.950145 C 7.520114 -5.229788 6.896526 -5.519898 6.010244 -5.819978 C 5.116484 -6.120058 4.386722 -6.410168 3.81996 -6.689811 C 1.973124 -7.59653 1.049954 -8.840216 1.049954 -10.419872 C 1.049954 -11.20646 1.280248 -11.899834 1.739839 -12.499993 C 2.199928 -13.106633 2.849935 -13.576692 3.689859 -13.910169 C 4.529783 -14.243148 5.47339 -14.410136 6.52018 -14.410136 C 7.546533 -14.410136 8.463222 -14.230188 9.270247 -13.869793 C 10.083254 -13.503416 10.713322 -12.983511 11.159952 -12.310076 C 11.613561 -11.636641 11.839867 -10.866503 11.839867 -10.000159 L 8.419854 -10.000159 C 8.419854 -10.579882 8.243396 -11.030001 7.889979 -11.35002 C 7.530083 -11.670039 7.050055 -11.830048 6.449895 -11.830048 C 5.836776 -11.830048 5.353258 -11.693467 4.999842 -11.419806 C 4.639946 -11.153124 4.459997 -10.810175 4.459997 -10.389964 C 4.459997 -10.023089 4.656894 -9.693101 5.050188 -9.4 C 5.436503 -9.106898 6.123397 -8.79984 7.109872 -8.479821 C 8.089866 -8.166781 8.896892 -7.826824 9.52995 -7.459949 C 11.070227 -6.573168 11.839867 -5.353409 11.839867 -3.800172 C 11.839867 -2.553495 11.369808 -1.576491 10.43019 -0.870157 C 9.490073 -0.156844 8.203518 0.200062 6.570027 0.200062 C 5.416564 0.200062 4.373263 -0.00680413 3.440125 -0.420037 C 2.506488 -0.83327 1.803145 -1.400032 1.330095 -2.119825 C 0.863526 -2.840116 0.630242 -3.670071 0.630242 -4.610188 L 4.060223 -4.610188 C 4.060223 -3.850019 4.256621 -3.286746 4.649915 -2.919871 C 5.043209 -2.559975 5.683246 -2.380027 6.570027 -2.380027 C 7.136789 -2.380027 7.586909 -2.503149 7.919888 -2.749892 C 8.246885 -2.996636 8.409885 -3.340083 8.409885 -3.780233 Z M 19.260113 -4.460148 L 19.260113 -14.220218 L 22.680125 -14.220218 L 22.680125 -4.460148 C 22.680125 -3.559908 22.46977 -2.753382 22.050057 -2.040069 C 21.629846 -1.333237 21.043145 -0.783423 20.289955 -0.390129 C 19.536764 0.00316529 18.69684 0.200062 17.770182 0.200062 C 16.223425 0.200062 15.020115 -0.193232 14.159753 -0.97982 C 13.29989 -1.759928 12.870207 -2.866535 12.870207 -4.300139 L 16.310159 -4.300139 C 16.310159 -3.646642 16.423312 -3.173095 16.650116 -2.879993 C 16.869942 -2.586892 17.243297 -2.439843 17.770182 -2.439843 C 18.250209 -2.439843 18.616586 -2.616801 18.869809 -2.970217 C 19.130012 -3.330113 19.260113 -3.826591 19.260113 -4.460148 Z M 19.260113 -4.460148 " transform="matrix(7.836457,0,0,7.836457,4.670514,151.682227)"/>
</g>
</svg>
