<?xml version="1.0" encoding="UTF-8"?>
<svg xmlns="http://www.w3.org/2000/svg" xmlns:xlink="http://www.w3.org/1999/xlink" width="512px" height="512px" viewBox="0 0 512 512" version="1.1">
<defs>
<linearGradient id="linear0" gradientUnits="userSpaceOnUse" x1="0" y1="0" x2="1" y2="0" gradientTransform="matrix(362.038672,362.038672,-362.038672,362.038672,256,-106.038672)">
<stop offset="0" style="stop-color:rgb(21.176471%,24.313725%,70.196078%);stop-opacity:1;"/>
<stop offset="1" style="stop-color:rgb(79.607843%,78.823529%,100%);stop-opacity:1;"/>
</linearGradient>
</defs>
<g id="surface1">
<rect x="0" y="0" width="512" height="512" style="fill:url(#linear0);stroke:none;"/>
<path style="fill-rule:nonzero;fill:rgb(12.941177%,11.764706%,13.725491%);fill-opacity:1;stroke-width:0.2;stroke-linecap:butt;stroke-linejoin:miter;stroke:rgb(100%,100%,100%);stroke-opacity:1;stroke-miterlimit:4;" d="M 8.409947 -3.779921 C 8.409947 -4.27995 8.233302 -4.670067 7.88001 -4.950083 C 7.519989 -5.229912 6.896588 -5.520023 6.009994 -5.82004 C 5.116671 -6.120058 4.386722 -6.409981 3.81996 -6.689997 C 1.97331 -7.596592 1.050079 -8.840029 1.050079 -10.419935 C 1.050079 -11.206709 1.279999 -11.900021 1.740026 -12.500056 C 2.200053 -13.106633 2.849997 -13.576754 3.690046 -13.910045 C 4.529908 -14.243335 5.473328 -14.410074 6.519931 -14.410074 C 7.546719 -14.410074 8.463408 -14.230063 9.269998 -13.870042 C 10.083316 -13.503292 10.713259 -12.983262 11.160014 -12.309951 C 11.613312 -11.636641 11.840054 -10.86669 11.840054 -9.99991 L 8.420041 -9.99991 C 8.420041 -10.579944 8.243396 -11.030064 7.889917 -11.350082 C 7.530083 -11.669914 7.050055 -11.829923 6.45002 -11.829923 C 5.836713 -11.829923 5.353321 -11.69328 5.000029 -11.419993 C 4.640008 -11.153248 4.459997 -10.810051 4.459997 -10.390026 C 4.459997 -10.023276 4.656644 -9.69335 5.049938 -9.400062 C 5.43669 -9.106587 6.123272 -8.800027 7.110059 -8.480008 C 8.089929 -8.166719 8.896705 -7.826699 9.530013 -7.459949 C 11.069916 -6.573355 11.840054 -5.353284 11.840054 -3.799922 C 11.840054 -2.553308 11.369933 -1.576615 10.430065 -0.870032 C 9.49001 -0.156719 8.203393 0.199937 6.570027 0.199937 C 5.416689 0.199937 4.373263 -0.00661721 3.439938 -0.419912 C 2.506613 -0.833394 1.803394 -1.399969 1.329908 -2.120011 C 0.863339 -2.840053 0.630055 -3.670008 0.630055 -4.610063 L 4.059974 -4.610063 C 4.059974 -3.850019 4.256621 -3.286621 4.649915 -2.920058 C 5.043396 -2.560037 5.683246 -2.380027 6.570027 -2.380027 C 7.136602 -2.380027 7.586722 -2.503398 7.920012 -2.749955 C 8.246573 -2.996698 8.409947 -3.340083 8.409947 -3.779921 Z M 19.259926 -4.459961 L 19.259926 -14.219969 L 22.679938 -14.219969 L 22.679938 -4.459961 C 22.679938 -3.559908 22.470019 -2.753319 22.049995 -2.040007 C 21.62997 -1.333424 21.043394 -0.783298 20.290079 -0.390004 C 19.536577 0.00328991 18.696715 0.199937 17.769932 0.199937 C 16.2233 0.199937 15.020052 -0.193357 14.160002 -0.979945 C 13.299952 -1.75999 12.87002 -2.866597 12.87002 -4.299952 L 16.310034 -4.299952 C 16.310034 -3.646642 16.423312 -3.173344 16.650054 -2.880056 C 16.870067 -2.586581 17.24336 -2.44003 17.769932 -2.44003 C 18.24996 -2.44003 18.616711 -2.616676 18.869996 -2.969968 C 19.130012 -3.329989 19.259926 -3.826653 19.259926 -4.459961 Z M 19.259926 -4.459961 " transform="matrix(20.897219,0,0,20.897219,12.454705,404.485938)"/>
</g>
</svg>
